/* XPM */
static char *_b686e2ac43b4394e18dfd11d3a72b560Y4pTf3ilKMhJ6B1[] = {
/* columns rows colors chars-per-pixel */
"480 32 36 1 ",
"  c #414141",
". c gray35",
"X c #010101",
"o c #141313",
"O c black",
"+ c #010102",
"@ c #020102",
"# c #090909",
"$ c #323232",
"% c #2F2F2F",
"& c #020202",
"* c #030000",
"= c #B0291B",
"- c #CB1703",
"; c #000002",
": c #E50D0E",
"> c #DD1404",
", c #020204",
"< c #010001",
"1 c #000F00",
"2 c #000700",
"3 c #020101",
"4 c gray10",
"5 c #232324",
"6 c #181818",
"7 c #232323",
"8 c #151515",
"9 c #000201",
"0 c #040404",
"q c #343434",
"w c #3A3B3A",
"e c gray33",
"r c gray5",
"t c gray28",
"y c #3F3F3F",
"u c #585858",
/* pixels */
"  ......     ...........  .       ......     ...........  .       ......     ...........  .       ......     ...........  .       ......     ...........  .       ......     ...........  .       ......     ...........  .       ......     ...........  .       ......     ...........  .       ......     ...........  .       ......     ...........  .       ......     ...........  .       ......     ...........  .       ......     ...........  .       ......     ...........  .     ",
" ....Xo......O+................  ....Xo......O+................  ....Xo......O+................  ....Xo......O+................  ....Xo......O+................  ....Xo......O+................  ....Xo......O+................  ....Xo......O+................  ..............................  ..............................  ..............................  ..............................  ..............................  ..............................  .............................. ",
".....Oo......X@......................Oo......X@......................Oo......X@......................Oo......X@......................Oo......X@......................Oo......X@......................Oo......X@......................Oo......X@........................Oo......X@......................Oo......X@......................Oo......X@......................Oo......X@......................Oo......X@......................Oo......X@......................Oo......X@...............",
"     OO#$$%%OOo...... ..........     OO#$$%%OOo...... ..........     OO#$$%%OOo...... ..........     OO#$$%%OOo...... ..........     OO#$$%%OOo...... ..........     OO#$$%%OOo...... ..........     OO#$$%%OOo...... ..........     OO#$$%%OOo...... ..........      OOO#$$%%OOo.... ..........      OOO#$$%%OOo.... ..........      OOO#$$%%OOo.... ..........      OOO#$$%%OOo.... ..........      OOO#$$%%OOo.... ..........      OOO#$$%%OOo.... ..........      OOO#$$%%OOo.... ..........",
".....XOOOOOOOOo......................XOOOOOOOOo......................XOOOOOOOOo......................XOOOOOOOOo......................XOOOOOOOOo......................XOOOOOOOOo......................XOOOOOOOOo......................XOOOOOOOOo.......................OXOOOOOOOOo.....................OXOOOOOOOOo.....................OXOOOOOOOOo.....................OXOOOOOOOOo.....................OXOOOOOOOOo.....................OXOOOOOOOOo.....................OXOOOOOOOOo...............",
".....XOOOOOOOOX.............. .......XOOOOOOOOX.............. .......XOOOOOOOOX.............. .......XOOOOOOOOX.............. .......XOOOOOOOOX.............. .......XOOOOOOOOX.............. .......XOOOOOOOOX.............. .......XOOOOOOOOX.............. ........OXOOOOOOOOX............ ........OXOOOOOOOOX............ ........OXOOOOOOOOX............ ........OXOOOOOOOOX............ ........OXOOOOOOOOX............ ........OXOOOOOOOOX............ ........OXOOOOOOOOX............ ..",
"....&X*=-&*=-&;o......    ..........&X*=-&*=-&;o......    ..........&X*OOOOOO&;o......    ..........&X*=-&*=-&;o......    ..........&X*=-&*=-&;o......    ..........&X*=-&*=-&;o......    ..........&X*=-&*=-&;o......    ..........&X*=-&*=-&;o......    ............&X*OO&*OO&;o....    ............&X*OO&*OO&;o....    ............&X*OO&*OO&;o....    ............&X*OO&*OO&;o....    ............&X*OO&*OO&;o....    ............&X*OO&*OO&;o....    ............&X*OO&*OO&;o....    ......",
"  ..OO+:>,+:>,Oo................  ..OO+:>,+:>,Oo................  ..OO+OO,+OO,Oo................  ..OO+:>,+:>,Oo................  ..OO+:>,+:>,Oo................  ..OO+:>,+:>,Oo................  ..OO+:>,+:>,Oo................  ..OO+:>,+:>,Oo................  ....OO+O=-&*=-Oo..............  ....OO+OO,+OO,Oo..............  ....OO+OO,+OO,Oo..............  ....OO+O=-&*=-Oo..............  ....OO+O=-&*=-Oo..............  ....OO+O=-&*=-Oo..............  ....OO+O=-&*=-Oo..............",
"....OO<12;<12;Oo....................OO<12;<12;Oo....................OO<12;<12;Oo....................OO<12;<12;Oo....................OO<12;<12;Oo....................OO<12;<12;Oo....................OO<12;<12;Oo....................OO<12;<12;Oo....................  OO<1:>,+:>Oo..................  OO<12;<12;Oo..................  OO<12;<12;Oo..................  OO<1:>,+:>Oo..................  OO<1:>,+:>Oo..................  OO<1:>,+:>Oo..................  OO<1:>,+:>Oo..............",
"....3OOOOOOOOOO&..... ..............3OOOOOOOOOO&..... ..............3OOOOOOOOOO&..... ..............3OOOOOOOOOO&..... ..............3OOOOOOOOOO&..... ..............3OOOOOOOOOO&..... ..............3OOOOOOOOOO&..... ..............3OOOOOOOOOO&..... ................3OOOOOOOOOO&... ................3OOOOOOOOOO&... ................3OOOOOOOOOO&... ................3OOOOOOOOOO&... ................3OOOOOOOOOO&... ................3OOOOOOOOOO&... ................3OOOOOOOOOO&... ..........",
"....4XOOOOOOOOOOX5.........     ....4XOOOOOOOOOOX5.........     ....4XOOOOOOOOOOX5.........     ....4XOOOOOOOOOOX5.........     ....4XOOOOOOOOOOX5.........     ....4XOOOOOOOOOOX5.........     ....4XOOOOOOOOOOX5.........     ....4XOOOOOOOOOOX5.........     ......4XOOOOOOOOOO.........     ......4XOOOOOOOOOO.........     ......4XOOOOOOOOOO.........     ......4XOOOOOOOOOO.........     ......4XOOOOOOOOOO.........     ......4XOOOOOOOOOO.........     ......4XOOOOOOOOOO.........     ",
".....&OOOOOOOOOOOO6......    ........&OOOOOOOOOOOO6......    ........&OOOOOOOOOOOO6......    ........&OOOOOOOOOOOO6......    ........&OOOOOOOOOOOO6......    ........&OOOOOOOOOOOO6......    ........&OOOOOOOOOOOO6......    ........&OOOOOOOOOOOO6......    .........O&OOOOOOOOOO6......    .........O&OOOOOOOOOO6......    .........O&OOOOOOOOOO6......    .........O&OOOOOOOOOO6......    .........O&OOOOOOOOOO6......    .........O&OOOOOOOOOO6......    .........O&OOOOOOOOOO6......    ...",
"... ..7OOOOOOOOOOoOO....   ........ ..7OOOOOOOOOOoOO....   ........ ..7OOOOOOOOOOoOO....   ........ ..7OOOOOOOOOOoOO....   ........ ..7OOOOOOOOOOoOO....   ........ ..7OOOOOOOOOOoOO....   ........ ..7OOOOOOOOOOoOO....   ........ ..7OOOOOOOOOOoOO....   ........ ..7OOOOOOOOOOoOO....   ........ ..7OOOOOOOOOOoOO....   ........ ..7OOOOOOOOOOoOO....   ........ ..7OOOOOOOOOOoOO....   ........ ..7OOOOOOOOOOoOO....   ........ ..7OOOOOOOOOOoOO....   ........ ..7OOOOOOOOOOoOO....   .....",
"......8OOOOOOOOOOOoO9...Oo............8OOOOOOOOOOOoO9...Oo............8OOOOOOOOOOOoO9...Oo............8OOOOOOOOOOOoO9...Oo............8OOOOOOOOOOOoO9...Oo............8OOOOOOOOOOOoO9...Oo............8OOOOOOOOOOOoO9...Oo............8OOOOOOOOOOOoO9...Oo............8OOOOOOOOOOOoO9...Oo............8OOOOOOOOOOOoO9...Oo............8OOOOOOOOOOOoO9...Oo............8OOOOOOOOOOOoO9...Oo............8OOOOOOOOOOOoO9...Oo............8OOOOOOOOOOOoO9...Oo............8OOOOOOOOOOOoO9...Oo......",
"     .0OOOOOOOOOOOooOq..OOO.....     .0OOOOOOOOOOOooOq..OOO.....     .0OOOOOOOOOOOooOq..OOO.....     .0OOOOOOOOOOOooOq..OOO.....     .0OOOOOOOOOOOooOq..OOO.....     .0OOOOOOOOOOOooOq..OOO.....     .0OOOOOOOOOOOooOq..OOO.....     .0OOOOOOOOOOOooOq..OOO.....     .0OOOOOOOOOOOooOq..OOO.....     .0OOOOOOOOOOOooOq..OOO.....     .0OOOOOOOOOOOooOq..OOO.....     .0OOOOOOOOOOOooOq..OOO.....     .0OOOOOOOOOOOooOq..OOO.....     .0OOOOOOOOOOOooOq..OOO.....     .0OOOOOOOOOOOooOq..OOO.....",
"......XOOOOOOOOOOOOOoXw..OOO..........XOOOOOOOOOOOOOoXw..OOO..........XOOOOOOOOOOOOOoXw..OOO..........XOOOOOOOOOOOOOoXw..OOO..........XOOOOOOOOOOOOOoXw..OOO..........XOOOOOOOOOOOOOoXw..OOO..........XOOOOOOOOOOOOOoXw..OOO..........XOOOOOOOOOOOOOoXw..OOO..........XOOOOOOOOOOOOOoXw..OOO..........XOOOOOOOOOOOOOoXw..OOO..........XOOOOOOOOOOOOOoXw..OOO..........XOOOOOOOOOOOOOoXw..OOO..........XOOOOOOOOOOOOOoXw..OOO..........XOOOOOOOOOOOOOoXw..OOO..........XOOOOOOOOOOOOOoXw..OOO....",
"......XOOOOOOOOOOOOOooX...OO..........XOOOOOOOOOOOOOooX...OO..........XOOOOOOOOOOOOOooX...OO..........XOOOOOOOOOOOOOooX...OO..........XOOOOOOOOOOOOOooX...OO..........XOOOOOOOOOOOOOooX...OO..........XOOOOOOOOOOOOOooX...OO..........XOOOOOOOOOOOOOooX...OO..........XOOOOOOOOOOOOOooX...OO..........XOOOOOOOOOOOOOooX...OO..........XOOOOOOOOOOOOOooX...OO..........XOOOOOOOOOOOOOooX...OO..........XOOOOOOOOOOOOOooX...OO..........XOOOOOOOOOOOOOooX...OO..........XOOOOOOOOOOOOOooX...OO....",
"......XOOOOOOOOOOOOOOoOe..OOO.........XOOOOOOOOOOOOOOoOe..OOO.........XOOOOOOOOOOOOOOoOe..OOO.........XOOOOOOOOOOOOOOoOe..OOO.........XOOOOOOOOOOOOOOoOe..OOO.........XOOOOOOOOOOOOOOoOe..OOO.........XOOOOOOOOOOOOOOoOe..OOO.........XOOOOOOOOOOOOOOoOe..OOO.........XOOOOOOOOOOOOOOoOe..OOO.........XOOOOOOOOOOOOOOoOe..OOO.........XOOOOOOOOOOOOOOoOe..OOO.........XOOOOOOOOOOOOOOoOe..OOO.........XOOOOOOOOOOOOOOoOe..OOO.........XOOOOOOOOOOOOOOoOe..OOO.........XOOOOOOOOOOOOOOoOe..OOO...",
"......OOOOOOOOOOOOOOOooX..OOo.........OOOOOOOOOOOOOOOooX..OOo.........OOOOOOOOOOOOOOOooX..OOo.........OOOOOOOOOOOOOOOooX..OOo.........OOOOOOOOOOOOOOOooX..OOo.........OOOOOOOOOOOOOOOooX..OOo.........OOOOOOOOOOOOOOOooX..OOo.........OOOOOOOOOOOOOOOooX..OOo.........OOOOOOOOOOOOOOOooX..OOo.........OOOOOOOOOOOOOOOooX..OOo.........OOOOOOOOOOOOOOOooX..OOo.........OOOOOOOOOOOOOOOooX..OOo.........OOOOOOOOOOOOOOOooX..OOo.........OOOOOOOOOOOOOOOooX..OOo.........OOOOOOOOOOOOOOOooX..OOo...",
" .   rOOOOOOOOOOOOOOOOoX..OOo... .   rOOOOOOOOOOOOOOOOoX..OOo... .   rOOOOOOOOOOOOOOOOoX..OOo... .   rOOOOOOOOOOOOOOOOoX..OOo... .   rOOOOOOOOOOOOOOOOoX..OOo... .   rOOOOOOOOOOOOOOOOoX..OOo... .   rOOOOOOOOOOOOOOOOoX..OOo... .   rOOOOOOOOOOOOOOOOoX..OOo... .   rOOOOOOOOOOOOOOOOoX..OOo... .   rOOOOOOOOOOOOOOOOoX..OOo... .   rOOOOOOOOOOOOOOOOoX..OOo... .   rOOOOOOOOOOOOOOOOoX..OOo... .   rOOOOOOOOOOOOOOOOoX..OOo... .   rOOOOOOOOOOOOOOOOoX..OOo... .   rOOOOOOOOOOOOOOOOoX..OOo...",
" .   &OOOOOOOOOOOOOOOOOX..OOo    .   &OOOOOOOOOOOOOOOOOX..OOo    .   &OOOOOOOOOOOOOOOOOX..OOo    .   &OOOOOOOOOOOOOOOOOX..OOo    .   &OOOOOOOOOOOOOOOOOX..OOo    .   &OOOOOOOOOOOOOOOOOX..OOo    .   &OOOOOOOOOOOOOOOOOX..OOo    .   &OOOOOOOOOOOOOOOOOX..OOo    .   &OOOOOOOOOOOOOOOOOX..OOo    .   &OOOOOOOOOOOOOOOOOX..OOo    .   &OOOOOOOOOOOOOOOOOX..OOo    .   &OOOOOOOOOOOOOOOOOX..OOo    .   &OOOOOOOOOOOOOOOOOX..OOo    .   &OOOOOOOOOOOOOOOOOX..OOo    .   &OOOOOOOOOOOOOOOOOX..OOo   ",
".....XOOOOOOOOOOOOOOOOOO..OOo.  .....XOOOOOOOOOOOOOOOOOO..OOo.  .....XOOOOOOOOOOOOOOOOOO..OOo.  .....XOOOOOOOOOOOOOOOOOO..OOo.  .....XOOOOOOOOOOOOOOOOOO..OOo.  .....XOOOOOOOOOOOOOOOOOO..OOo.  .....XOOOOOOOOOOOOOOOOOO..OOo.  .....XOOOOOOOOOOOOOOOOOO..OOo.  .....XOOOOOOOOOOOOOOOOOO..OOo.  .....XOOOOOOOOOOOOOOOOOO..OOo.  .....XOOOOOOOOOOOOOOOOOO..OOo.  .....XOOOOOOOOOOOOOOOOOO..OOo.  .....XOOOOOOOOOOOOOOOOOO..OOo.  .....XOOOOOOOOOOOOOOOOOO..OOo.  .....XOOOOOOOOOOOOOOOOOO..OOo.  ",
".....OOOOOOOOOOOOOOOOOOO.OOOo........OOOOOOOOOOOOOOOOOOO.OOOo........OOOOOOOOOOOOOOOOOOO.OOOo........OOOOOOOOOOOOOOOOOOO.OOOo........OOOOOOOOOOOOOOOOOOO.OOOo........OOOOOOOOOOOOOOOOOOO.OOOo........OOOOOOOOOOOOOOOOOOO.OOOo........OOOOOOOOOOOOOOOOOOO.OOOo........OOOOOOOOOOOOOOOOOOO.OOOo........OOOOOOOOOOOOOOOOOOO.OOOo........OOOOOOOOOOOOOOOOOOO.OOOo........OOOOOOOOOOOOOOOOOOO.OOOo........OOOOOOOOOOOOOOOOOOO.OOOo........OOOOOOOOOOOOOOOOOOO.OOOo........OOOOOOOOOOOOOOOOOOO.OOOo...",
".....OOOOOOOOOOOOOOOOOOO.OOoo........OOOOOOOOOOOOOOOOOOO.OOoo........OOOOOOOOOOOOOOOOOOO.OOoo........OOOOOOOOOOOOOOOOOOO.OOoo........OOOOOOOOOOOOOOOOOOO.OOoo........OOOOOOOOOOOOOOOOOOO.OOoo........OOOOOOOOOOOOOOOOOOO.OOoo........OOOOOOOOOOOOOOOOOOO.OOoo........OOOOOOOOOOOOOOOOOOO.OOoo........OOOOOOOOOOOOOOOOOOO.OOoo........OOOOOOOOOOOOOOOOOOO.OOoo........OOOOOOOOOOOOOOOOOOO.OOoo........OOOOOOOOOOOOOOOOOOO.OOoo........OOOOOOOOOOOOOOOOOOO.OOoo........OOOOOOOOOOOOOOOOOOO.OOoo...",
".....XOOOOOOOOOOOOOOOOOOOOOoO........XOOOOOOOOOOOOOOOOOOOOOoO........XOOOOOOOOOOOOOOOOOOOOOoO........XOOOOOOOOOOOOOOOOOOOOOoO........XOOOOOOOOOOOOOOOOOOOOOoO........XOOOOOOOOOOOOOOOOOOOOOoO........XOOOOOOOOOOOOOOOOOOOOOoO........XOOOOOOOOOOOOOOOOOOOOOoO........XOOOOOOOOOOOOOOOOOOOOOoO........XOOOOOOOOOOOOOOOOOOOOOoO........XOOOOOOOOOOOOOOOOOOOOOoO........XOOOOOOOOOOOOOOOOOOOOOoO........XOOOOOOOOOOOOOOOOOOOOOoO........XOOOOOOOOOOOOOOOOOOOOOoO........XOOOOOOOOOOOOOOOOOOOOOoO...",
".....OOOOOOOOOOOOOOOOOOOOOOo.........OOOOOOOOOOOOOOOOOOOOOOo.........OOOOOOOOOOOOOOOOOOOOOOo.........OOOOOOOOOOOOOOOOOOOOOOo.........OOOOOOOOOOOOOOOOOOOOOOo.........OOOOOOOOOOOOOOOOOOOOOOo.........OOOOOOOOOOOOOOOOOOOOOOo.........OOOOOOOOOOOOOOOOOOOOOOo.........OOOOOOOOOOOOOOOOOOOOOOo.........OOOOOOOOOOOOOOOOOOOOOOo.........OOOOOOOOOOOOOOOOOOOOOOo.........OOOOOOOOOOOOOOOOOOOOOOo.........OOOOOOOOOOOOOOOOOOOOOOo.........OOOOOOOOOOOOOOOOOOOOOOo.........OOOOOOOOOOOOOOOOOOOOOOo....",
"....XOotOOOOOOOOOOOOOOOOOOoo........XOotOOOOOOOOOOOOOOOOOOoo........XOotOOOOOOOOOOOOOOOOOOoo........XOotOOOOOOOOOOOOOOOOOOoo........XOotOOOOOOOOOOOOOOOOOOoo........XOotOOOOOOOOOOOOOOOOOOoo........XOotOOOOOOOOOOOOOOOOOOoo........XOotOOOOOOOOOOOOOOOOOOoo........XOotOOOOOOOOOOOOOOOOOOoo........XOotOOOOOOOOOOOOOOOOOOoo........XOotOOOOOOOOOOOOOOOOOOoo........XOotOOOOOOOOOOOOOOOOOOoo........XOotOOOOOOOOOOOOOOOOOOoo........XOotOOOOOOOOOOOOOOOOOOoo........XOotOOOOOOOOOOOOOOOOOOoo....",
"....XOo.yOOOOOOOOOOOOOOOOoo..   ....XOo.yOOOOOOOOOOOOOOOOoo..   ....XOo.yOOOOOOOOOOOOOOOOoo..   ....XOo.yOOOOOOOOOOOOOOOOoo..   ....XOo.yOOOOOOOOOOOOOOOOoo..   ....XOo.yOOOOOOOOOOOOOOOOoo..   ....XOo.yOOOOOOOOOOOOOOOOoo..   ....XOo.yOOOOOOOOOOOOOOOOoo..   ....XOo.yOOOOOOOOOOOOOOOOoo..   ....XOo.yOOOOOOOOOOOOOOOOoo..   ....XOo.yOOOOOOOOOOOOOOOOoo..   ....XOo.yOOOOOOOOOOOOOOOOoo..   ....XOo.yOOOOOOOOOOOOOOOOoo..   ....XOo.yOOOOOOOOOOOOOOOOoo..   ....XOo.yOOOOOOOOOOOOOOOOoo..   ",
"...uOOOOOOOOOOOOOOOOOOOOOo.........uOOOOOOOOOOOOOOOOOOOOOo.........uOOOOOOOOOOOOOOOOOOOOOo.........uOOOOOOOOOOOOOOOOOOOOOo.........uOOOOOOOOOOOOOOOOOOOOOo.........uOOOOOOOOOOOOOOOOOOOOOo.........uOOOOOOOOOOOOOOOOOOOOOo.........uOOOOOOOOOOOOOOOOOOOOOo.........uOOOOOOOOOOOOOOOOOOOOOo.........uOOOOOOOOOOOOOOOOOOOOOo.........uOOOOOOOOOOOOOOOOOOOOOo.........uOOOOOOOOOOOOOOOOOOOOOo.........uOOOOOOOOOOOOOOOOOOOOOo.........uOOOOOOOOOOOOOOOOOOOOOo.........uOOOOOOOOOOOOOOOOOOOOOo......",
" . &OOOOOOOOOOOOOOOOOOOOO....... . &OOOOOOOOOOOOOOOOOOOOO....... . &OOOOOOOOOOOOOOOOOOOOO....... . &OOOOOOOOOOOOOOOOOOOOO....... . &OOOOOOOOOOOOOOOOOOOOO....... . &OOOOOOOOOOOOOOOOOOOOO....... . &OOOOOOOOOOOOOOOOOOOOO....... . &OOOOOOOOOOOOOOOOOOOOO....... . &OOOOOOOOOOOOOOOOOOOOO....... . &OOOOOOOOOOOOOOOOOOOOO....... . &OOOOOOOOOOOOOOOOOOOOO....... . &OOOOOOOOOOOOOOOOOOOOO....... . &OOOOOOOOOOOOOOOOOOOOO....... . &OOOOOOOOOOOOOOOOOOOOO....... . &OOOOOOOOOOOOOOOOOOOOO.......",
" ..............................  ..............................  ..............................  ..............................  ..............................  ..............................  ..............................  ..............................  ..............................  ..............................  ..............................  ..............................  ..............................  ..............................  .............................. ",
"   ..           ..............     ..           ..............     ..           ..............     ..           ..............     ..           ..............     ..           ..............     ..           ..............     ..           ..............     ..           ..............     ..           ..............     ..           ..............     ..           ..............     ..           ..............     ..           ..............     ..           ..............  "
};
