/* XPM */
static char *_9b202bc8f374ecfe3487624836b7897dugy4TukTK1rRpTQ[] = {
/* columns rows colors chars-per-pixel */
"32 32 5 1 ",
"  c #414141",
". c gray35",
"X c #533A21",
"o c #6E4F2F",
"O c #B08F0A",
/* pixels */
"  ......     ...........  .     ",
" .............................. ",
"................................",
"       . ............ ..........",
"....XXXXXXXXXXXXXXXXXXXXXXXX....",
"....XooooXXooooXXooooXXooooX. ..",
"....XooooXXooXOXXOXooXXooooX....",
"  ..XooooXXooXOXXOXooXXooooX....",
"....XooooXXooOOXXOOooXXooooX....",
"....XooooXXooOoXXoOooXXooooX....",
"....XooooXXooOoXXoOooXXooooX    ",
"....XooooXXooOOXXOOooXXooooX ...",
"... XooooXXoooOOOOoooXXooooX....",
"....XooooXXooooXXooooXXooooX....",
"    XooooXXooooXXooooXXooooX....",
"....XooooXXooooXXooooXXooooX....",
"....XooooXXooooXXooooXXooooX....",
"....XooooXXooooXXooooXXooooX....",
"....XooooXXooooXXooooXXooooX....",
" .  XooooXXooooXXooooXXooooX....",
" .  XooooXXooooXXooooXXooooX    ",
"....XooooXXooooXXooooXXooooX..  ",
"....XooooXXooooXXooooXXooooX....",
"....XooooXXooooXXooooXXooooX....",
"....XooooXXooooXXooooXXooooX....",
"....XooooXXooooXXooooXXooooX....",
"....XooooXXooooXXooooXXooooX....",
"....XXXXXXXXXXXXXXXXXXXXXXXX.   ",
"..................    .. .......",
" .    ..........................",
" .............................. ",
"   ..           ..............  "
};
