/* XPM */
static char *_48685171d3745e9d665158f7176c936NYD43x6F0z0WIHit[] = {
/* columns rows colors chars-per-pixel */
"32 32 2 1 ",
"  c #414141",
". c gray35",
/* pixels */
"  ......     ...........  .     ",
" .............................. ",
"................................",
"       . ............ ..........",
"................................",
"............................. ..",
".............. .......    ......",
"  ..............................",
"....    ........................",
"..................... ..........",
"...........................     ",
".........................    ...",
"... ....................   .....",
".......... .....................",
"     ...........................",
"................................",
".................   ............",
"...................... .........",
"................................",
" .    .................... .....",
" .    ... .................     ",
"..............................  ",
"............   .................",
"................................",
".............    .... ..........",
"................................",
"..... ..........................",
".............................   ",
"..................    .. .......",
" .    ..........................",
" .............................. ",
"   ..           ..............  "
};
