/* XPM */
static char *_c8bc4fb2e594989ec8d5a587b3a8f2caSAMTcYt2ERBNtnU[] = {
/* columns rows colors chars-per-pixel */
"32 32 102 2 ",
"   c #414141",
".  c gray35",
"X  c #46396D",
"o  c #4C3E76",
"O  c #51427E",
"+  c #544776",
"@  c #5C586A",
"#  c #2B2343",
"$  c #3A2F5A",
"%  c #45386B",
"&  c #383443",
"*  c #2F2649",
"=  c #64558F",
"-  c #615684",
";  c #27203D",
":  c #31284C",
">  c #352B52",
",  c #342A51",
"<  c #30274B",
"1  c #5C4B8F",
"2  c #4A4658",
"3  c #554584",
"4  c #929040",
"5  c #5B5864",
"6  c #45434C",
"7  c #362C54",
"8  c #4A3C73",
"9  c #ADAA7B",
"0  c #DCE363",
"q  c #FBFFB7",
"w  c #7B7F35",
"e  c #2E2840",
"r  c #79725B",
"t  c #FAFFA5",
"y  c #E8EE7D",
"u  c #C4CA63",
"i  c #BFBBA3",
"p  c #CACF6A",
"a  c #A2C869",
"s  c #BAC869",
"d  c #2D2546",
"f  c #777058",
"g  c #EEF48B",
"h  c #FDFFCE",
"j  c #84CE6C",
"k  c #3B792E",
"l  c #D3D793",
"z  c #312C41",
"x  c #3D325F",
"c  c #8C930D",
"v  c #FBFFB9",
"b  c #DADF85",
"n  c #636727",
"m  c #292140",
"M  c #2C2445",
"N  c #DFE56A",
"B  c #67684B",
"V  c #5A5A20",
"C  c #CCD442",
"Z  c #AEB262",
"A  c #251F3A",
"S  c #241E38",
"D  c #232D3F",
"F  c #454951",
"G  c #261F3B",
"H  c #34432F",
"J  c #578683",
"K  c #5F6C6A",
"L  c #747A00",
"P  c #3D494B",
"I  c #33294F",
"U  c #A5AE00",
"Y  c #382D56",
"T  c #535415",
"R  c #EAEEA3",
"E  c #B2BA28",
"W  c #FBFFB1",
"Q  c #9B9B8B",
"!  c #A2A928",
"~  c #E0E57D",
"^  c #B1A221",
"/  c #949586",
"(  c #BBBDA4",
")  c #808177",
"_  c #767A15",
"`  c #909800",
"'  c #B8BE42",
"]  c #9D8E0B",
"[  c #FAFFAD",
"{  c #633C0A",
"}  c #818720",
"|  c #7F816B",
" . c #999B77",
".. c #C1C76B",
"X. c #494631",
"o. c #6D7127",
"O. c #5F6144",
"+. c #38342C",
"@. c #2C2444",
"#. c #2D2547",
"$. c #43414B",
"%. c #35323C",
/* pixels */
"    . . . . . .           . . . . . . . . . . .     .           ",
"  . . . . . . . . . . . . . . . . . . . . . . . . . . . . . .   ",
". . . . . . . . . . . X o O + @ . . . . . . . . . . . . . . . . ",
"              .   . . # $ $ % O + @ . . .   . . . . . . . . . . ",
". . . . . . . . . . . & * $ $ $ % O = - @ . . . . . . . . . . . ",
". . . . . . . . . . . . ; # : $ > , o o o = @ . . . . . .   . . ",
". . . . . . . . . . . . & # # < $ $ $ $ $ $ 1 2     . . . . . . ",
"    . . . . . . . . . . & # , $ $ $ $ $ $ 3 4 5 . . . . . . . . ",
". . . .         . . . . 6 7 $ $ $ $ $ 8 9 0 q w . . . . . . . . ",
". . . . . . . . . . . . e $ $ $ $ $ $ r t y u t . . . . . . . . ",
". . . . . . . . . . . 6 * $ $ $ $ $ > i p a s t . . .           ",
". . . . . . . . . . 6 d $ $ $ $ $ > f g h j k l .         . . . ",
". . .   . . . . . . z # * $ $ $ $ x c y t v t b n     . . . . . ",
". . . . . . . . . .   z m # 7 $ $ $ M c y t t N B . . . . . . . ",
"          . . . . . . . . z m # : : : m V C Z B . . . . . . . . ",
". . . . . . . . . . . . . . . . A ; ; S D F . . . . . . . . . . ",
". . . . . . . . . . . . . . . & # # # G H J K . . . . . . . . . ",
". . . . . . . . . . . . . . . ; # * 7 G L H P . . . . . . . . . ",
". . . . . . . . . . . . . . & * $ I $ G U C . . . . . . . . . . ",
"  .         . . . . . . . . < $ $ Y $ T g R . . . .   . . . . . ",
"  .         . . .   . . . & $ $ $ Y $ T E W Q . . . .           ",
". . . . . . . . . . . . 6 7 $ $ $ $ $ T ! 0 ~ . . . . . . .     ",
". ^ ^ ^ ^ . / ( ) . . 6 7 $ $ $ $ $ $ _ t ` ' . . . . . . . . . ",
". ] ] ] ^ ^ [ t W ) { 7 $ 7 $ $ $ $ $ _ t } { { { { { { { . . . ",
". ^ ^ ^ ^ ^ |  .C ..< $ > $ $ 7 $ Y $ X.t o.{ { { { { { { . . . ",
". ] ] ] ^ . . . O.L +.: Y $ $ , $ , $ @.t . . . . . . . . . . . ",
". . . . .   . . . . . z M : #.7 : $ $ * . . . . . . . . . . . . ",
". . . . . . . . . . . . . $.$.G G * : # . . . . . . . . .       ",
". . . . . . . . . . . . . . . . . $.%.%.    . .   . . . . . . . ",
"  .         . . . . . . . . . . . . . . . . . . . . . . . . . . ",
"  . . . . . . . . . . . . . . . . . . . . . . . . . . . . . .   ",
"      . .                       . . . . . . . . . . . . . .     "
};
