/* XPM */
static char *_0231b2d722e4c1dae319426d600ac05yztiGzK51NBtffv6[] = {
/* columns rows colors chars-per-pixel */
"32 32 135 2 ",
"   c #414141",
".  c gray35",
"X  c #45434C",
"o  c #64558F",
"O  c #655595",
"+  c #4C4A50",
"@  c #332D48",
"#  c #45386B",
"$  c #413565",
"%  c #352F47",
"&  c #30274B",
"*  c #3A2F5A",
"=  c #5C4B8F",
"-  c #574787",
";  c #2C2444",
":  c #383443",
">  c #342A51",
",  c #6754A0",
"<  c #615684",
"1  c #31284C",
"2  c #43414B",
"3  c #554584",
"4  c #4C3E76",
"5  c #2F2649",
"6  c #352B52",
"7  c #423667",
"8  c #35323C",
"9  c #2B2343",
"0  c #4F407B",
"q  c #3D325F",
"w  c #241E38",
"e  c #4A3C73",
"r  c #79725B",
"t  c #929040",
"y  c #6D6369",
"u  c #4E3F79",
"i  c #231D37",
"p  c #362C54",
"a  c #A3A81A",
"s  c #AEB800",
"d  c #9DA026",
"f  c #C9D23B",
"g  c #EEF48B",
"h  c #FAFFA5",
"j  c #DCE363",
"k  c #8A8A35",
"l  c #87AF5E",
"z  c #FBFFB1",
"x  c #FBFFB7",
"c  c #8EBC63",
"v  c #544F42",
"b  c #302941",
"n  c #261F3B",
"m  c #D6EFA9",
"M  c #3B792E",
"N  c #84CE6C",
"B  c #77C861",
"V  c #469038",
"C  c #E2F5AE",
"Z  c #FAFFAD",
"A  c #CCD442",
"S  c #3C3B3F",
"D  c #46432C",
"F  c #E8EE7D",
"G  c #959A33",
"H  c #DFE56A",
"J  c #3C3732",
"K  c #515031",
"L  c #787762",
"P  c #4C4B3A",
"I  c #27203D",
"U  c #232D3F",
"Y  c #222A3B",
"T  c #2A2241",
"R  c #365157",
"E  c #4A747D",
"W  c #536126",
"Q  c #42522F",
"!  c #507F82",
"~  c #2F434E",
"^  c #292140",
"/  c #E0E499",
"(  c #D5D7AD",
")  c #314D54",
"_  c #283D4C",
"`  c #97A108",
"'  c #8B960D",
"]  c #2B4251",
"[  c #2A424A",
"{  c #9EA34B",
"}  c #24223B",
"|  c #26233D",
" . c #382D56",
".. c #8C9224",
"X. c #31284D",
"o. c #989F08",
"O. c #8C930D",
"+. c #696D24",
"@. c #B7BF28",
"#. c #797B50",
"$. c #2E2B3A",
"%. c #767A15",
"&. c #747820",
"*. c #2E2840",
"=. c #38342C",
"-. c #B9BE56",
";. c #C5CA6B",
":. c #B2BA28",
">. c #C0C83B",
",. c #ABAF4F",
"<. c #32294D",
"1. c #BABD70",
"2. c #FCFFC2",
"3. c #9A9C55",
"4. c #3A3548",
"5. c #312C41",
"6. c #2C2445",
"7. c #2D2547",
"8. c #888B3D",
"9. c #8B9300",
"0. c #66663A",
"q. c #2A2242",
"w. c #373345",
"e. c #504F53",
"r. c #6E721E",
"t. c #C0C928",
"y. c #979E1A",
"u. c #A9B028",
"i. c #BAC31A",
"p. c #575924",
"a. c #5F6144",
"s. c #ABAF56",
"d. c #808343",
"f. c #8E9249",
"g. c #5D5E4B",
/* pixels */
"    . . . . . .           . . . . . . . . . . .     .           ",
"  . . . . . . . X o . . . . . . . . . . . . O + . . . . . . .   ",
". . . . . . . . @ # o . . . . . . . . . . O $ % . . . . . . . . ",
"              . & * = o . . . . . . . . O - * ; . . . . . . . . ",
". . . . . . . : > * * , o < < < < < < O , * * 1 2 . . . . . . . ",
". . . . . . . : > * * 3 - 4 4 4 4 4 4 = 4 * * 1 2 . . . .   . . ",
". . . . . . . : 5 6 7 $ * * * * * * * * # 6 * 1 8   . . . . . . ",
"    . . . . . : 9 0 * * * * * * * * * * * # q 9 2 . . . . . . . ",
". . . .         w $ * * e r t t t t y # * * u i . . . . . . . . ",
". . . . . . . X p * * r a s s s s s s d y * * > + . . . . . . . ",
". . . . . . . @ * * 3 s f g h h h h j s s 4 * * % . .           ",
". . . . . . @ * * * k j h l z h h x c h j v * * * b       . . . ",
". . .   . + n 1 * ; j z m M N h h B V C Z A & * 1 n S . . . . . ",
". . . . . . . 2 n 9 D F h h h G G h h h H J 9 n 2 . . . . . . . ",
"          . . . . 2 2 K L h h h h h h L P 2 2 . . . . . . . . . ",
". . . . . . . . . . . . X I U Y U Y I + . . . . . . . . . . . . ",
". . . . . . . . . . . X T R E W Q ! ~ ^ + . . / ( . . . . . . . ",
". . . . . . . . . . . I 9 ) _ ` ' ] [ 9 n .   { z . . . . . . . ",
". . . . . . . . . . : * p } ` g F ' |  .* 2 . ..H . . . . . . . ",
"  .         . . . . & * X.o.g h h F O.> * ; +.@.#..   . . . . . ",
"  .         . . . $.* * ; g h h h h F & * * %.&.. . .           ",
". . . . . . . . . *.* * G A h j j h j G * * =.. . . . . . .     ",
". . . . . . . . X T * * G F G -.-.G g G * * ^ + . . . . . . . . ",
". . . . . . . X 5  .* X.;.h :.G G >.h ,.> * p ^ + . . . . . . . ",
". . . . . . : p * *  .; j h h j j h h A & p * * <.: . . . . . . ",
". . . . X & * *  .6 * ; j h h h h h h A & * p p * * & + . . . . ",
". . . . % > 6  .* p * 5 1.h h 2.2.h h 3.> * 6 * p p X.4.. . . . ",
". . . . . + 5.6.7.5 1 7.8.h H 9.9.F h 0.5 1 7.5 q.w.e.. .       ",
". . . . . . . + 2 n n n r.t.y.. . u.i.p.n n n 2 S . . . . . . . ",
"  .         . . . . . . a.s.d.. . f.s.g.. . . . . . . . . . . . ",
"  . . . . . . . . . . . . . . . . . . . . . . . . . . . . . .   ",
"      . .                       . . . . . . . . . . . . . .     "
};
