/* XPM */
static char *result[] = {
/* columns rows colors chars-per-pixel */
"16 32 18 1 ",
"  c black",
". c #0C0C0C",
"X c gray23",
"o c gray51",
"O c gray28",
"+ c gray74",
"@ c #8E8E8E",
"# c #5F5F5F",
"$ c #767676",
"% c #2F2F2F",
"& c gray14",
"* c gray60",
"= c gray42",
"- c gray37",
"; c #181818",
": c gray65",
"> c #535353",
", c #B1B1B1",
/* pixels */
"                ",
"                ",
"                ",
"                ",
"                ",
"                ",
"         .      ",
"        Xo      ",
"       O+@      ",
"      O++@      ",
"     #$++@      ",
"   %o& ++@      ",
"   &   ++@      ",
"       ++@      ",
"       ++@      ",
"       ++@      ",
"       ++@      ",
"      &++@      ",
"      %++@      ",
"      O++*      ",
"      =+++-;    ",
"      :++@X     ",
"     >+:%       ",
"    .,=.        ",
"    $X          ",
"   .;           ",
"                ",
"                ",
"                ",
"                ",
"                ",
"                "
};
