/* XPM */
static char *result[] = {
/* columns rows colors chars-per-pixel */
"16 32 22 1 ",
"  c black",
". c #0C0C0C",
"X c gray37",
"o c #B1B1B1",
"O c #6A6A6A",
"+ c gray74",
"@ c gray60",
"# c gray14",
"$ c gray65",
"% c gray51",
"& c #5F5F5F",
"* c #767676",
"= c #181818",
"- c #535353",
"; c gray28",
": c #2F2F2F",
"> c gray42",
", c #8E8E8E",
"< c #A5A5A5",
"1 c #9A9A9A",
"2 c gray23",
"3 c #8D8D8D",
/* pixels */
"                ",
"                ",
"                ",
"                ",
"                ",
"                ",
"                ",
"      .XoO      ",
"    .Xo+++@.    ",
"   #$%&%+++@    ",
"  .*=   #o++-   ",
"  ;#     -++%   ",
"  *      :++%   ",
"  >      >++;   ",
"  ,.    #o+o=   ",
"  .    .<+o#    ",
"      .@+1#     ",
"      %o-       ",
"     *,=        ",
"    --          ",
"   2>  =:=      ",
"  .<O@+++++o3=  ",
"  *+++++++++,   ",
" =+++1,,,+++:   ",
" >>#     .;1    ",
"                ",
"                ",
"                ",
"                ",
"                ",
"                ",
"                "
};
