/* XPM */
static char *result[] = {
/* columns rows colors chars-per-pixel */
"16 32 18 1 ",
"  c black",
". c #0C0C0C",
"X c gray51",
"o c #2F2F2F",
"O c gray42",
"+ c gray74",
"@ c gray28",
"# c #B1B1B1",
"$ c gray14",
"% c #8E8E8E",
"& c #5F5F5F",
"* c #9A9A9A",
"= c gray60",
"- c #767676",
"; c #181818",
": c #8D8D8D",
"> c #A5A5A5",
", c #535353",
/* pixels */
"                ",
"                ",
"                ",
"                ",
"                ",
"                ",
"         ..     ",
"         Xo     ",
"        O+o     ",
"       @++o     ",
"      o#++o     ",
"     $%&++o     ",
"    .*.&++o     ",
"   .=$ &++o     ",
"   -@  &++o   . ",
"  OO   &++o  &; ",
" @+::::>+++++O  ",
"o+++++++++++#.  ",
"o&,oooo-++,o,   ",
"       &++o     ",
"       &++o     ",
"       -++@     ",
"      .#++>.    ",
"     .=+*O@;    ",
"    oO@;        ",
"                ",
"                ",
"                ",
"                ",
"                ",
"                ",
"                "
};
