/* XPM */
static char *result[] = {
/* columns rows colors chars-per-pixel */
"16 32 18 1 ",
"  c black",
". c #0C0C0C",
"X c #767676",
"o c #2F2F2F",
"O c #181818",
"+ c gray28",
"@ c gray74",
"# c #B1B1B1",
"$ c gray14",
"% c gray51",
"& c #535353",
"* c #9A9A9A",
"= c gray42",
"- c #5F5F5F",
"; c #8E8E8E",
": c gray65",
"> c gray23",
", c #A5A5A5",
/* pixels */
"                ",
"                ",
"                ",
"                ",
"                ",
"                ",
"  .XooO    Ooo  ",
"  +@@@@@@@@@#$  ",
"  %@@@@@@@@@&   ",
" .@*=-----&;    ",
" +&       XO    ",
" +       +X     ",
"        O#$     ",
"        ;:      ",
"       >@=      ",
"      .,@$      ",
"      -@:       ",
"      #@=       ",
"     +@@+       ",
"     %@@o       ",
"    .@@@        ",
"    +@@@        ",
"    X@@@        ",
"    #@@@        ",
"   >:-o$        ",
"   $            ",
"                ",
"                ",
"                ",
"                ",
"                ",
"                "
};
