/* XPM */
static char *result[] = {
/* columns rows colors chars-per-pixel */
"16 32 22 1 ",
"  c black",
". c #0C0C0C",
"X c #767676",
"o c #464646",
"O c gray60",
"+ c gray74",
"@ c #2F2F2F",
"# c gray65",
"$ c #8E8E8E",
"% c #9A9A9A",
"& c #5F5F5F",
"* c #181818",
"= c gray42",
"- c #B1B1B1",
"; c gray28",
": c gray23",
"> c #A5A5A5",
", c #8D8D8D",
"< c #535353",
"1 c gray14",
"2 c gray51",
"3 c gray37",
/* pixels */
"                ",
"                ",
"                ",
"                ",
"                ",
"                ",
"      .Xo.      ",
"     .O+++X.    ",
"    @#$%+++O.   ",
"   &X   *=-+;   ",
"  ;%      :+&   ",
"  #>      .+:   ",
"  #+,*    <X    ",
"  =++-X:*;X     ",
"  .%++++++,1    ",
"    <++++++-1   ",
"   @%11=#+++>   ",
"  :-1    12++*  ",
" *-=       %+@  ",
" =+;       &+*  ",
" 2+O.      =$   ",
" ;++O@    .%1   ",
" .#+++OX3X>:    ",
"  .2++++++;     ",
"    ;2-++&      ",
"       *<       ",
"                ",
"                ",
"                ",
"                ",
"                ",
"                "
};
