/* XPM */
static char *result[] = {
/* columns rows colors chars-per-pixel */
"16 32 21 1 ",
"  c black",
". c #0C0C0C",
"X c #535353",
"o c gray74",
"O c gray32",
"+ c #818181",
"@ c #767676",
"# c gray14",
"$ c #2F2F2F",
"% c #8E8E8E",
"& c gray28",
"* c #9A9A9A",
"= c #181818",
"- c #5F5F5F",
"; c gray51",
": c #B1B1B1",
"> c gray65",
", c gray37",
"< c gray42",
"1 c gray23",
"2 c gray60",
/* pixels */
"                ",
"                ",
"                ",
"                ",
"                ",
"                ",
"       .        ",
"      XoO       ",
"    .+ooo@      ",
"   #@$%ooo@     ",
"  &*   Xooo@    ",
" =o-    &ooo$   ",
" Xo@     ;oo@   ",
" %oo.    =oo:   ",
" ;oo@     >oo   ",
" &ooo&   #:oo   ",
"  %ooo,$O<%o*   ",
"  #:oooo& *o@   ",
"   1:o:# =oo#   ",
"    #<.  -o-    ",
"        =:*     ",
"       .2*.     ",
"      =2@.      ",
"    .,%$        ",
"  -<<#          ",
"                ",
"                ",
"                ",
"                ",
"                ",
"                ",
"                "
};
