/* XPM */
static char *result[] = {
/* columns rows colors chars-per-pixel */
"16 32 21 1 ",
"  c black",
". c #0C0C0C",
"X c gray23",
"o c #767676",
"O c gray74",
"+ c #818181",
"@ c gray60",
"# c #B1B1B1",
"$ c gray14",
"% c gray65",
"& c gray51",
"* c #9A9A9A",
"= c #181818",
"- c #535353",
"; c #8E8E8E",
": c #A5A5A5",
"> c #2F2F2F",
", c #5F5F5F",
"< c gray42",
"1 c gray28",
"2 c #6A6A6A",
/* pixels */
"                ",
"                ",
"                ",
"                ",
"                ",
"                ",
"       .X       ",
"      .oO+.     ",
"     .@OOO#$    ",
"    $o.X%OO#$   ",
"   X&   .*OO@   ",
"  =#=    .*OO-  ",
"  &;      =OO:  ",
" >O,       ,OO$ ",
" ,O,       =OO> ",
" ;O<        %O, ",
" ;O;        *OX ",
" ;O#.       OO= ",
" ,OOo      =O;  ",
" >OOO>     -O>  ",
"  *OO#$   .#1   ",
"  $#OO#$ .@1    ",
"   XOOO#2;>     ",
"    X#OO#$      ",
"     =*#$       ",
"      .$        ",
"                ",
"                ",
"                ",
"                ",
"                ",
"                "
};
