/* XPM */
static char *result[] = {
/* columns rows colors chars-per-pixel */
"16 32 20 1 ",
"  c black",
". c #181818",
"X c #767676",
"o c #A5A5A5",
"O c #8D8D8D",
"+ c #0C0C0C",
"@ c gray42",
"# c #8E8E8E",
"$ c #B1B1B1",
"% c gray74",
"& c gray14",
"* c gray60",
"= c #9A9A9A",
"- c #2F2F2F",
"; c gray23",
": c gray28",
"> c #464646",
", c #5F5F5F",
"< c #535353",
"1 c gray65",
/* pixels */
"                ",
"                ",
"                ",
"                ",
"                ",
"                ",
"                ",
"      .XoO+     ",
"    +@#$%%o&    ",
"   &X+ +X%%*    ",
"  +=     =%%-   ",
"  +&     ;%%:   ",
"         -%$.   ",
"        +*=&    ",
"      ->o#+     ",
"    :@,X$%*-    ",
"        +#%%;   ",
"         .%%$   ",
"          =%%-  ",
"  +.      #%%;  ",
"  <;      $%%&  ",
" +$@     &%%$   ",
" ,%$+    <%%;   ",
" .,$O   X%%:    ",
"   +@=X*1X&     ",
"                ",
"                ",
"                ",
"                ",
"                ",
"                ",
"                "
};
