/* XPM */
static char *result[] = {
/* columns rows colors chars-per-pixel */
"16 32 22 1 ",
"  c black",
". c gray23",
"X c #0C0C0C",
"o c #B1B1B1",
"O c gray74",
"+ c #A5A5A5",
"@ c #8D8D8D",
"# c #6A6A6A",
"$ c #767676",
"% c gray28",
"& c gray42",
"* c #5F5F5F",
"= c gray51",
"- c #8E8E8E",
"; c gray14",
": c gray37",
"> c gray32",
", c #181818",
"< c #535353",
"1 c gray65",
"2 c #2F2F2F",
"3 c gray60",
/* pixels */
"                ",
"                ",
"                ",
"                ",
"                ",
"                ",
"              . ",
"     XoOO+@@#$X ",
"     %OOOOOOO%  ",
"     &*=---OoX  ",
"    X&          ",
"    %;          ",
"    =:@@@>,     ",
"   XOOOOOOO<    ",
"   %Oo--oOOO.   ",
"   *%    *OO+   ",
"          *OO.  ",
"          XOO*  ",
"           -O-  ",
"   $X      -O*  ",
"  %-       1O2  ",
" ;oO      .O-   ",
" 2oO2    X+o;   ",
"  X-3;  ;@o2    ",
"    %=-@1*X     ",
"                ",
"                ",
"                ",
"                ",
"                ",
"                ",
"                "
};
