/* XPM */
static char *result[] = {
/* columns rows colors chars-per-pixel */
"16 32 21 1 ",
"  c black",
". c #0C0C0C",
"X c #181818",
"o c gray37",
"O c gray51",
"+ c #8E8E8E",
"@ c #2F2F2F",
"# c #767676",
"$ c #5F5F5F",
"% c gray42",
"& c gray60",
"* c #9A9A9A",
"= c #B1B1B1",
"- c gray74",
"; c gray28",
": c #8D8D8D",
"> c gray14",
", c #535353",
"< c #818181",
"1 c #464646",
"2 c gray65",
/* pixels */
"                ",
"                ",
"                ",
"                ",
"                ",
"                ",
"           .    ",
"        XoO+X   ",
"      @#$X      ",
"     %#.        ",
"   .&*.         ",
"   *=X          ",
"  %-;  .:;      ",
" .--X >=--#     ",
" ,-= ;*----$    ",
" #-&%@ .*---@   ",
" +--.   .*--O   ",
" %--X    .=--   ",
" ,--<     $--   ",
" .=--,    @-*   ",
"  $---;   @-;   ",
"   +---;  $#    ",
"   .*---#1;     ",
"    .*--2>      ",
"     .#*.       ",
"                ",
"                ",
"                ",
"                ",
"                ",
"                ",
"                "
};
