/* XPM */
static char *ee226decb4364e01be12203fb6ad6f8ctld5y8Ym4jfqyES4[] = {
/* columns rows colors chars-per-pixel */
"32 32 6 1 ",
"  c #414141",
". c gray35",
"X c #633C0A",
"o c #4A2D07",
"O c #B1A221",
"+ c #9D8E0B",
/* pixels */
"  ......     ...........  .     ",
" ..............Xo.............. ",
"...............Xo...............",
"       . ......XX.... ..........",
"...............XX...............",
"...............oX............ ..",
".............. oX.....    ......",
"  .............XX...............",
"....    .......oX...............",
"...............XX.... ..........",
"...............Xo..........     ",
"...............Xo........    ...",
"... ...........Xo.......   .....",
".......... ....oX...............",
"     ..........oX...............",
"...............oX...............",
"...............XX   ............",
"...............oX..... .........",
"...............XX...............",
" .    .........oX......... .....",
" .    ... .....XX..........     ",
"...............XX.............  ",
"............  O+O+..............",
".............+O+O+O.............",
"............O+O+O+O+. ..........",
"............++O+O+O+............",
"..... ......O+O+++O+............",
"............O+O+O+O+.........   ",
"............O+O+O+++  .. .......",
" .    ......O+++O+O+............",
" ...........O+O+O+O+........... ",
"   ..           ..............  "
};
