/* XPM */
static char *_c13d95fb51e4705adc657341b1e479bzmPTV6Pw2OUie7bt[] = {
/* columns rows colors chars-per-pixel */
"32 32 6 1 ",
"  c #414141",
". c gray35",
"X c #633C0A",
"o c #4A2D07",
"O c #B1A221",
"+ c #9D8E0B",
/* pixels */
"  ......     ...........  .     ",
" Xo............................ ",
"..Xo............................",
"   XX  . ............ ..........",
"....oX..........................",
".....oX...................... ..",
"......XX...... .......    ......",
"  .....oX.......................",
"....    Xo......................",
".........Xo.......... ..........",
"..........Xo...............     ",
"...........XX............    ...",
"... ........oX..........   .....",
".......... ..oX.................",
"     .........oX................",
"...............XX...............",
"................oX  ............",
".................XX... .........",
"..................XX............",
" .    .............oX..... .....",
" .    ... ..........XXOO+OO     ",
".....................+OOO+OO..  ",
"............   ......O+OO++OO...",
".....................OO++OO+OO..",
".............    ....+OO+OOO++O.",
".....................O+OO+OOO+OO",
"..... ................++OO+OOO+O",
".......................O+OO+OOO ",
"..................    ..O++O+O..",
" .    ...................O+OO...",
" .........................O+... ",
"   ..           ..............  "
};
