/* XPM */
static char *d4b54d67cd004a50e7ebbed3df84e56fNzwRBZHT9rokT6ad[] = {
/* columns rows colors chars-per-pixel */
"32 32 6 1 ",
"  c #414141",
". c gray35",
"X c #633C0A",
"o c #4A2D07",
"O c #9D8E0B",
"+ c #B1A221",
/* pixels */
"  ......     ...........  .     ",
" ..............Xo.............. ",
"...............Xo...............",
"       . ......XX.... ..........",
"..............oXX...............",
"..............oX............. ..",
"..............XX......    ......",
"  ...........oXX................",
"....    .....XX.................",
".............Xo...... ..........",
"............XXo............     ",
"............Xo...........    ...",
"... ........oX..........   .....",
".......... oXX..................",
"     ......oX...................",
"...........XX...................",
"..........oXX....   ............",
"..........XX.......... .........",
"..........oX....................",
" .    ...oXX.............. .....",
" .    ...XX................     ",
".....O+O++X...................  ",
"....+OO++O+.   .................",
"...++O++O++.....................",
"..++O++O++O..    .... ..........",
".++O++OO+O+.....................",
".+OO+O+OO+O.....................",
"..++O++OOO...................   ",
"...OO+O+O.........    .. .......",
" .  +O+O........................",
" ....+O........................ ",
"   ..           ..............  "
};
