/* XPM */
static char *_ec4cd62ab1e4611a664537e6b9e2fe62X78YUDlaNIqOlIV[] = {
/* columns rows colors chars-per-pixel */
"32 32 7 1 ",
"  c #414141",
". c gray35",
"X c #644524",
"o c gray61",
"O c #A5A5A5",
"+ c gray83",
"@ c #48CC1F",
/* pixels */
"  ......     ...........  .     ",
" .............................. ",
"................................",
"       . ............ ..........",
"................................",
".............XXXXX........... ..",
".............XXXXX....    ......",
"  ...........XXXXX..............",
"....    ......oXo...............",
"..............OXO.... ..........",
"..............O.+..........     ",
"..............O.+........    ...",
"... .........O.@.+......   .....",
".......... .O.....+.............",
"     ......O.@..+..+............",
"..........O.........+...........",
".........OO@@@@@@@@@O+..........",
"........OO@@@@@@@@@@@O+.........",
"........OO@@@@@@@@@@@O+.........",
" .    ..OO@@@@@@@@@@@O+... .....",
" .    ..OO@@@@@@@@@@@O+....     ",
"........OO@@@@@@@@@@@O+.......  ",
"........OO++++@@@@+++++.........",
".........OO@@@@@@@@@++..........",
"..........OOO+++++++O ..........",
"................................",
"..... ..........................",
".............................   ",
"..................    .. .......",
" .    ..........................",
" .............................. ",
"   ..           ..............  "
};
