/* XPM */
static char *_50a903e62f4499ffe2f08c766818c019v39OQsbAyONQDQL[] = {
/* columns rows colors chars-per-pixel */
"32 32 236 2 ",
"   c #414141",
".  c gray35",
"X  c #414142",
"o  c #45434B",
"O  c #59595A",
"+  c #5B5864",
"@  c #585858",
"#  c #5C527B",
"$  c #5B5861",
"%  c #5B5866",
"&  c #5A5079",
"*  c #565658",
"=  c #352F4A",
"-  c #4D3F76",
";  c #615682",
":  c #5A5860",
">  c #5C5867",
",  c #605485",
"<  c #493C70",
"1  c #3B3649",
"2  c #32294E",
"3  c #3C315D",
"4  c #574786",
"5  c #615487",
"6  c #544482",
"7  c #392E59",
"8  c #302847",
"9  c #575758",
"0  c #3E3A48",
"q  c #342A51",
"w  c #3A2F5B",
"e  c #413565",
"r  c #574886",
"t  c #5D527C",
"y  c #60577B",
"u  c #60577A",
"i  c #5F577A",
"p  c #5F567A",
"a  c #5A4F7C",
"s  c #3E3260",
"d  c #322A4B",
"f  c #49484F",
"g  c #565657",
"h  c #383445",
"j  c #342A52",
"k  c #3A2F5A",
"l  c #413464",
"z  c #4C3E76",
"x  c #52427F",
"c  c #52437F",
"v  c #524380",
"b  c #493B71",
"n  c #322A4C",
"m  c #45424C",
"M  c #373344",
"N  c #30274B",
"B  c #352B53",
"V  c #392E58",
"C  c #3A2F59",
"Z  c #352B52",
"A  c #302749",
"S  c #36333D",
"D  c #403D49",
"F  c #2B2242",
"G  c #31284C",
"H  c #392F59",
"J  c #342A50",
"K  c #30274A",
"L  c #2E2644",
"P  c #4A484F",
"I  c #3C3A40",
"U  c #2B2343",
"Y  c #33294F",
"T  c #2D2642",
"R  c #545456",
"E  c #342C4E",
"W  c #322B44",
"Q  c #382E57",
"!  c #382D55",
"~  c #3B3749",
"^  c #4D4B51",
"/  c #363146",
"(  c #362C54",
")  c #362C53",
"_  c #2D2544",
"`  c #33303F",
"'  c #3E3E40",
"]  c #352F45",
"[  c #29213F",
"{  c #2F2648",
"}  c #332A50",
"|  c #2E2648",
" . c #2C2445",
".. c #2A223F",
"X. c #2F2B3E",
"o. c #3D3C40",
"O. c #3E3B4A",
"+. c #353046",
"@. c #2A2242",
"#. c #2E2547",
"$. c #2A2241",
"%. c #2A2240",
"&. c #373146",
"*. c #3E3B49",
"=. c #3F3B4A",
"-. c #3A3548",
";. c #352F46",
":. c #2A2340",
">. c #3D3948",
",. c #3F3B49",
"<. c #4F4E53",
"1. c #2B2945",
"2. c #2F3650",
"3. c #303C54",
"4. c #303A53",
"5. c #2D304B",
"6. c #2B2742",
"7. c #575658",
"8. c #2E2C4A",
"9. c #323B56",
"0. c #34415B",
"q. c #34405A",
"w. c #303551",
"e. c #2C2746",
"r. c #2D263F",
"t. c #302947",
"y. c #2F2649",
"u. c #2E2646",
"i. c #363048",
"p. c #555557",
"a. c #3C374B",
"s. c #2F264A",
"d. c #372E52",
"f. c #45414E",
"g. c #362C50",
"h. c #382D57",
"j. c #372C55",
"k. c #372D56",
"l. c #3D335B",
"z. c #59506E",
"x. c #4D4366",
"c. c #392F58",
"v. c #39324D",
"b. c #565557",
"n. c #332F3F",
"m. c #4B4162",
"M. c #B6B598",
"N. c #9C998B",
"B. c #393054",
"V. c #312B44",
"C. c #544B65",
"Z. c #F5F9A5",
"A. c #BEBE86",
"S. c #392F57",
"D. c #3B3747",
"F. c #413D4C",
"G. c #2D2547",
"H. c #554C64",
"J. c #ECF09D",
"K. c #89866A",
"L. c #2E2743",
"P. c #4A4850",
"I. c #434050",
"U. c #332B4C",
"Y. c #554D65",
"T. c #EAED9F",
"R. c #7C7673",
"E. c #342A4F",
"W. c #352F48",
"Q. c #575657",
"!. c #433E52",
"~. c #3D3258",
"^. c #635D50",
"/. c #D1D66B",
"(. c #746F63",
"). c #382D56",
"_. c #372C54",
"`. c #38314D",
"'. c #484452",
"]. c #38304F",
"[. c #372D55",
"{. c #3C3546",
"}. c #858822",
"|. c #ABB21E",
" X c #5D5650",
".X c #382E58",
"XX c #352C51",
"oX c #3B354E",
"OX c #555457",
"+X c #332B4B",
"@X c #32284D",
"#X c #372D50",
"$X c #403A38",
"%X c #66671C",
"&X c #9EA608",
"*X c #797C1B",
"=X c #3D354B",
"-X c #362C52",
";X c #3B3451",
":X c #3B354A",
">X c #2F274A",
",X c #2E2642",
"<X c #3C363A",
"1X c #48452D",
"2X c #787C10",
"3X c #A4AD00",
"4X c #A3AB03",
"5X c #5D5E1B",
"6X c #312B3B",
"7X c #32294C",
"8X c #3E3A4D",
"9X c #44414C",
"0X c #3E3A49",
"qX c #363147",
"wX c #373147",
"eX c #3B3740",
"rX c #59591D",
"tX c #686A14",
"yX c #64681A",
"uX c #878D19",
"iX c #8F9515",
"pX c #9AA200",
"aX c #7F8506",
"sX c #464526",
"dX c #312B42",
"fX c #2F2A40",
"gX c #38363E",
"hX c #777B1F",
"jX c #7A7F1F",
"kX c #777C1E",
"lX c #7B7F1E",
"zX c #5A5A57",
"xX c #5D5E4D",
"cX c #5E5F4A",
"vX c #5D5E4C",
"bX c #5E5F49",
/* pixels */
"    . . . . . . X o       . . . . . . . . O + .     .           ",
"  . . . . . . @ . # $ . . . . . . . . . O % & . . . . . . . .   ",
". . . . . . . * = - ; : . . . . . . . O > , < 1 . . . . . . . . ",
"              . 2 3 4 ; : . . . . . O > 5 6 7 8 . . . . . . . . ",
". . . . . . 9 0 q w e r t y y u u i p a 6 s 7 d f . . . . . . . ",
". . . . . . g h j k w l z x x c c v x b s k 7 n m . . . .   . . ",
". . . . . . g M N B q V k k k k k k k k C Z B A S   . . . . . . ",
"    . . . . 9 D F G q V k k k k k k k k H J K L P . . . . . . . ",
". . . .       I U B k k k k k k k k k k k H Y T R . . . . . . . ",
". . . . . . 9 . Y k k k k k k k k k k k k k 7 E . . . . . . . . ",
". . . . . @ . W Q k k k k k k k k k k k k k k ! ~ . .           ",
". . . . @ ^ / U G ( k k k k k k k k k k C ) q N _ ` '     . . . ",
". . .   @ ^ ] [ U { Y Y ) ) ) ) ) ( ) } Y |  .U ..X.o.. . . . . ",
". . . . . @ . O.+.[ [ @.| | | | | | #.U $.[ %.&.*.. . . . . . . ",
"          . . @ . =.*.-.;.[ [ [ [ [ :.&.-.>.,.. . . . . . . . . ",
". . . . . . . . . . @ <.. 1.2.3.4.5.6.. . . . . . . . . . . . . ",
". . . . . . . . . . 7.. T 8.9.0.q.w.e.r.. . . . . . . . . . . . ",
". . . . . . . . . @ . t.y.U U U U U U u.i..   . . . . . . . . . ",
". . . . . . . . . p.a.( ( 2 N s.s.G 2 Z d.f.. . . . . . . . . . ",
"  .         . . @ . g.k k k h.j.k.l.z.x.c.v.. . . .   . . . . . ",
"  .         . . b.n.Q k k k k k k m.M.N.C B.P . . . .           ",
". . . . . . . . . V.k k k k k k k C.Z.A.k S.D.. . . . . . .     ",
". . . . . . . g F.G.k k k k k k k H.J.K.k h.L.P.. . . . . . . . ",
". . . . . . * I.U.) k k k k k k k Y.T.R.h.7 E.W.P.. . . . . . . ",
". . . . Q.. !.d.V k k k k V k k ~.^./.(.).k C _.`.'.. . . . . . ",
". . . * . ].J k k H [.k Q V C j.{.}.|. Xk .XC h.7 XXoX. . . . . ",
". . . OX. +X@XQ k h.j.[.q k.#X$X%X&X*X=XQ ).j.[.( -X;X. . . . . ",
". . . @ . . :X+XN G 2 >X,X<X1X2X3X4X5X6XY Y >X7X= 8X. . .       ",
". . . . . @ . 9X0XqXwXeXrXtXyXuXiXpXaXsXdXfXqX*.gX. . . . . . . ",
"  .         . . 9 . . . hXjX. . . kXlX. . . . . . . . . . . . . ",
"  . . . . . . . . . . zXxXcX. . zXvXbX. . . . . . . . . . . .   ",
"      . .                       . . . . . . . . . . . . . .     "
};
