/* XPM */
static char *_a22965b1e7548c6b425fbc7662aea40Hemzs7ywtS7ah1X3[] = {
/* columns rows colors chars-per-pixel */
"32 32 99 2 ",
"   c #414141",
".  c gray35",
"X  c #5E5773",
"o  c #5A4C84",
"O  c #50417C",
"+  c #4C3E76",
"@  c #433769",
"#  c #413565",
"$  c #3A2F5A",
"%  c #28213E",
"&  c #615684",
"*  c #655595",
"=  c #2D2547",
"-  c #43414B",
";  c #342A51",
":  c #362C54",
">  c #31284C",
",  c #2B2343",
"<  c #261F3B",
"1  c #574787",
"2  c #2F2649",
"3  c #5C586A",
"4  c #929040",
"5  c #554584",
"6  c #8C9224",
"7  c #FBFFB1",
"8  c #DCE363",
"9  c #A4A168",
"0  c #45386B",
"q  c #4C4A50",
"w  c #BABD87",
"e  c #C4CA63",
"r  c #EEF48B",
"t  c #FAFFA5",
"y  c #6D6369",
"u  c #312C41",
"i  c #9AAD4C",
"p  c #A5C05C",
"a  c #DADF7D",
"s  c #A298A2",
"d  c #2C2445",
"f  c #E0E499",
"g  c #469038",
"h  c #84CE6C",
"j  c #FCFFCA",
"k  c #E8EE7D",
"l  c #6A6063",
"z  c #7E8324",
"x  c #E5EA96",
"c  c #FBFFB9",
"v  c #DFE56A",
"b  c #7C8013",
"n  c #373345",
"m  c #6D7044",
"M  c #352B52",
"N  c #28203E",
"B  c #B8BD57",
"V  c #CCD442",
"C  c #5A5A20",
"Z  c #2A2241",
"A  c #504F53",
"S  c #3B424D",
"D  c #222A3B",
"F  c #251F3A",
"G  c #27203D",
"H  c #241E38",
"J  c #627573",
"K  c #4F7B7B",
"L  c #3E4B26",
"P  c #445759",
"I  c #747A00",
"U  c #382D56",
"Y  c #30274B",
"T  c #A0A900",
"R  c #32294E",
"E  c #F0F4B4",
"W  c #434220",
"Q  c #2C2444",
"!  c #B2B39A",
"~  c #FAFFAD",
"^  c #A5AD1A",
"/  c #E9EE91",
"(  c #AEB43B",
")  c #CED463",
"_  c #929A00",
"`  c #949586",
"'  c #BBBDA4",
"]  c #808177",
"[  c #B1A221",
"{  c #633C0A",
"}  c #909715",
"|  c #9D8E0B",
" . c #413C3A",
".. c #C4CB5D",
"X. c #999B77",
"o. c #413F24",
"O. c #5D5E4B",
"+. c #33294F",
"@. c #2A2242",
/* pixels */
"    . . . . . .           . . . . . . . . . . .     .           ",
"  . . . . . . . . . . . . . . . . . . . . . . . . . . . . . .   ",
". . . . . . . . . . . . . . . . X o O + @ . . . . . . . . . . . ",
"              .   . . . . . X o O # $ $ %   . . . . . . . . . . ",
". . . . . . . . . . . X & * O # $ $ $ = - . . . . . . . . . . . ",
". . . . . . . . . X * + + + ; : $ > , < . . . . . . . . .   . . ",
". . . . . . . . X 1 $ $ $ $ $ $ 2 , , - . .         . . . . . . ",
"    . . . . . . 3 4 5 $ $ $ $ $ $ ; , - . . . . . . . . . . . . ",
". . . .         6 7 8 9 0 $ $ $ $ $ ; q . . . . . . . . . . . . ",
". . . . . . . . w e r t y $ $ $ $ $ $ u .   . . . . . . . . . . ",
". . . . . . . . w i p a s : $ $ $ $ $ d . . . . . . .           ",
". . . . . . . . f g h j k l : $ $ $ $ $ , . . . .         . . . ",
". . .   . . . z x t c t v b $ $ $ $ $ = , n . .       . . . . . ",
". . . . . . . m k t t v b 2 $ $ $ M , N n . . . . . . . . . . . ",
"          . . . m B V C Z > > > , N n A . . . . . . . . . . . . ",
". . . . . . . . . . S D F G G H - A . . . . . . . . . . . . . . ",
". . . . . . . . . J K L G , , , -       . . . . . . . . . . . . ",
". . . . . . . . . P L I G U Y , < . . . . .   . . . . . . . . . ",
". . . . . . . . . . 8 T G $ R $ Y - . . . . . . . . . . . . . . ",
"  .         . . . . E k W $ : $ $ Q . . . . . . . .   . . . . . ",
"  .         . . . ! ~ ^ W $ : $ $ $ - . . . . . . . .           ",
". . . . . . . . . / V ( W $ $ $ $ $ ; q . . . . . . . . . .     ",
". . . . . . . . . ) _ t C $ $ $ $ $ $ ; q . . ` ' ] . [ [ [ [ . ",
". . . { { { { { { { } t C $ $ $ $ $ M $ ; { ` ~ t 7 [ [ | | | . ",
". . . { { { { { { { 6 t  .$ : $ U $ $ : $ Q ..V X.{ [ [ [ [ [ . ",
". . . . . . . . . . . t Y $ > $ > $ $ : > o.I O.. . . [ | | | . ",
". . . . .   . . . . . . +.$ $ ; M 2 > @.n . . . . . . . . . . . ",
". . . . . . . . . . . . , > = < < - - . . . . . . . . . .       ",
". . . . . . . . . . . . - - - . . .         . .   . . . . . . . ",
"  .         . . . . . . . . . . . . . . . . . . . . . . . . . . ",
"  . . . . . . . . . . . . . . . . . . . . . . . . . . . . . .   ",
"      . .                       . . . . . . . . . . . . . .     "
};
