/* XPM */
static char *d28b4bbfda614ffbb38dacf1e200ef0dxtgVGzRTuWXvi3go[] = {
/* columns rows colors chars-per-pixel */
"32 32 6 1 ",
"  c #414141",
". c gray35",
"X c gray30",
"o c #133FB0",
"O c #547EE8",
"+ c #2456D5",
/* pixels */
"  ......     ...........  .     ",
" .............................. ",
"................................",
"       . ............ ..........",
"................................",
"XXXXXXXXXXXXXXXXXXXXXXXXXXXXXXXX",
"XXXXXXXXXXXXXXXXXXXXXXXXXXXXXXXX",
"XXXXXXXXXXXXXXXXXXXXXXXXXXXXXXXX",
"XXXXXoooooooooooooooooXXXXXXXXXX",
"XXXXoooooooooooooooooooXXXXXXXXX",
"oooooOOOOOOOOOOOOOOOOOoooooooooo",
"oooooOOOOOOOOOOOOOOOOOoooooooooo",
"OOOOO+++++++++++++++++OOOOOOOOOO",
"OOOOO+++++++++++++++++OOOOOOOOOO",
"++++++++++++++++++++++++++++++++",
"++++++++++++++++++++++++++++++++",
"++++++++++++++++++++++++++++++++",
"++++++++++++++++++++++++++++++++",
"++++++++++++++++++++++++++++++++",
"++++++++++++++++++++++++++++++++",
"++++++++++++++++++++++++++++++++",
"++++++++++++++++++++++++++++++++",
"++++++++++++++++++++++++++++++++",
"++++++++++++++++++++++++++++++++",
"++++++++++++++++++++++++++++++++",
"++++++++++++++++++++++++++++++++",
"++++++++++++++++++++++++++++++++",
"++++++++++++++++++++++++++++++++",
"++++++++++++++++++++++++++++++++",
"++++++++++++++++++++++++++++++++",
"++++++++++++++++++++++++++++++++",
"++++++++++++++++++++++++++++++++"
};
