/* XPM */
static char *ba7f74a4bf144486accc560b401b6d12646Kyr6hJCQKMIwd[] = {
/* columns rows colors chars-per-pixel */
"32 32 2 1 ",
"  c gray15",
". c gray24",
/* pixels */
"   .   .   .   .   .   .   .   .",
"   .   .   .   .   .   .   .   .",
"................................",
" .   .   .   .   .   .   .   .  ",
" .   .   .   .   .   .   .   .  ",
"................................",
"   .   .   .   .   .   .   .   .",
"   .   .   .   .   .   .   .   .",
"................................",
" .   .   .   .   .   .   .   .  ",
" .   .   .   .   .   .   .   .  ",
"................................",
"   .   .   .   .   .   .   .   .",
"   .   .   .   .   .   .   .   .",
"................................",
" .   .   .   .   .   .   .   .  ",
" .   .   .   .   .   .   .   .  ",
"................................",
"   .   .   .   .   .   .   .   .",
"   .   .   .   .   .   .   .   .",
"................................",
" .   .   .   .   .   .   .   .  ",
" .   .   .   .   .   .   .   .  ",
"................................",
"   .   .   .   .   .   .   .   .",
"   .   .   .   .   .   .   .   .",
"................................",
" .   .   .   .   .   .   .   .  ",
" .   .   .   .   .   .   .   .  ",
"................................",
"   .   .   .   .   .   .   .   .",
"   .   .   .   .   .   .   .   ."
};
