/* XPM */
static char *e762e3adce2847e49c6aa66b09330a03ZCC2lCVhC7mE7y00[] = {
/* columns rows colors chars-per-pixel */
"32 32 4 1 ",
"  c #414141",
". c gray35",
"X c #2456D5",
"o c #547EE8",
/* pixels */
"  ......     ...........  .     ",
" .............................. ",
"....XXXXXXXXXXXXXXXXXXXXXXXXXXX.",
"   XXXXXXXXXXXXXXXXXXXXXXXXXXXXX",
"...XXXoooooooXXXXXooooooooXXXXXX",
"...XXXXXXXXXXXXXXXXXXXXXXXXXXoXX",
"...XXXXXXXooooXXXXXXXoooXXXXXXXX",
"  .XXXXXXXXXXXXXXXXXXXXXXXXXXXXX",
"...XXXooooooXoXXXXXooooooooXXXXX",
"...XXXXXXXXXXXXXXXXXXXXXXXXXoXXX",
"...XXXXXXXoooXoXXXXooXXXXXXXXXXX",
"...XXXXXXXXXXXXXXXXXXXXXXXXXXXXX",
"...XXXoooooooXXXXXXXXooooooXXXXX",
"...XXXXXXXXXXXXXXXXXXXXXXXXXXXXX",
"   XXXXXXXooooXXXXooooXXoXXXoXXX",
"...XXXXXXXXXXXXXXXXXXXXXXXXXXXXX",
"...XXXoooooooXXXXXXXXXXXXXXXXXXX",
"...XXXXXXXXXXXXXXXoXoooooXXXoXXX",
"...XXXXXXXooooXXXXXXXXXXXXXXXXXX",
" . XXXXXXXXXXXXXXXXXXXXXXXXXXXXX",
" . XXXoooooooXXXXXXXoooooXXXoXoo",
"...XXXXXXXXXXXXXXXXXXXXXXXXXXXXX",
"...XXXXXXXoooXoXXXXXXoooXXXXXXXX",
"...XXXXXXXXXXXXXXoXXXXXXXXXXXXXX",
"...XXXoooooXoXXXXXXXXXXXXXXXXXXX",
"...XXXXXXXXXXXXXXXXXoXXXoooooXXX",
"...XXXXXXXooooXXXXXXXXXXXXXXXXXX",
"...XXXXXXXXXXXXXXXooooXXXXXXXXXX",
"...XXXoooooooXXXXXXXXXXXXooooXXX",
" .  XXXXXXXXXXXXXXXXXXXXXXXXXXX.",
" .............................. ",
"   ..           ..............  "
};
