/* XPM */
static char *_43cc7d084f54c05ceceb0566be30342emwdUrfcYIv9VKhy[] = {
/* columns rows colors chars-per-pixel */
"32 32 6 1 ",
"  c #414141",
". c gray35",
"X c #633C0A",
"o c #4A2D07",
"O c #B1A221",
"+ c #9D8E0B",
/* pixels */
"  ......     ...........  .     ",
" ..............Xo.............. ",
"...............Xo...............",
"       . ......XX.... ..........",
"...............oXX..............",
"................oX........... ..",
".............. .XX....    ......",
"  ..............oXX.............",
"....    .........Xo.............",
".................Xo.. ..........",
".................XoX.......     ",
"..................XX.....    ...",
"... ..............oX....   .....",
".......... .......oXX...........",
"     ..............oX...........",
"...................XX...........",
".................  oXX..........",
"....................XX .........",
"....................oX..........",
" .    ..............oXX... .....",
" .    ... ...........XX....     ",
".....................XOO+O+...  ",
"............   ......O+OO+O+....",
".....................OO+OO+++...",
".............    ....+OO++O+++..",
".....................O+OO+OO+O+.",
"..... ...............+++OO+OO+O.",
"......................OO+OO++O  ",
"..................    .OO++O+...",
" .    ..................OO+O....",
" ........................OO.... ",
"   ..           ..............  "
};
