/* XPM */
static char *c80544921b824768d060cba6c18ea98eclZbnQwkFwlOSoZA[] = {
/* columns rows colors chars-per-pixel */
"32 32 6 1 ",
"  c #414141",
". c gray35",
"X c #633C0A",
"o c #4A2D07",
"O c #B1A221",
"+ c #9D8E0B",
/* pixels */
"  ......     ...........  .     ",
" ............................Xo ",
"............................Xo..",
"       . ............ .....XX...",
"..........................oX....",
".........................oX.. ..",
".............. .......  XX......",
"  .....................oX.......",
"....    ..............XX........",
".....................Xo.........",
"....................Xo.....     ",
"...................Xo....    ...",
"... ..............oX....   .....",
".......... ......oX.............",
"     ...........oX..............",
"...............XX...............",
"..............oX.   ............",
".............XX....... .........",
"............XX..................",
" .    .....oX............. .....",
" .   O+OO+XX...............     ",
"....O+OO+OO...................  ",
"...++OO+OOO.   .................",
"..O+OO+OOO+.....................",
".O+OO++OO+O..    .... ..........",
"O++O+OO++OO.....................",
"+OO+OOO+OO......................",
".O+OOO+OO....................   ",
"..OOO++O..........    .. .......",
" . O+OO.........................",
" ...OO......................... ",
"   ..           ..............  "
};
