/* XPM */
static char *_457d0ee469c4a849ff44bc68fd9bf0b3JFaP2co1d4mSpAW[] = {
/* columns rows colors chars-per-pixel */
"32 32 12 1 ",
"  c #414141",
". c gray35",
"X c #272736",
"o c #CFA385",
"O c #A27C6E",
"+ c #4B3837",
"@ c #606070",
"# c #C2C2D1",
"$ c #FFFFEB",
"% c #3CA370",
"& c #3D6E70",
"* c #8FDE5D",
/* pixels */
"  ......     ...........  .     ",
" .............................. ",
"................................",
"       . ............ ..........",
"................................",
"............................. ..",
".............. .......    ......",
"  ..............................",
"....    ........................",
"..............XXXX... ..........",
".............XoOOOX........     ",
".............X+oo+X......    ...",
"... .......XX@#++#@XX...   .....",
"..........X$$$#%&#$$$X..........",
"     ....X$&%$****$%&$X.........",
".........X$%**$**$**%$X.........",
".........X#%***$$***%#X.........",
".........X#&%*%$$%*%&#X.........",
"..........X$%%%$$%%&$X..........",
" .    .....X$&&$$&&$X..... .....",
" .    ... ..X$&$$&$X.......     ",
".............X$$$$X...........  ",
"............  XXXX..............",
"................................",
".............    .... ..........",
"................................",
"..... ..........................",
".............................   ",
"..................    .. .......",
" .    ..........................",
" .............................. ",
"   ..           ..............  "
};
