/* XPM */
static char *_f2d8f18529145309abb8233c6bada32BP946emOHkTgcQtp[] = {
/* columns rows colors chars-per-pixel */
"32 32 64 1 ",
"  c #414141",
". c gray35",
"X c #3C3C3C",
"o c #0E0D0D",
"O c gray23",
"+ c #010101",
"@ c #090808",
"# c #3E3E3E",
"$ c #4C4C4C",
"% c #4B4B4B",
"& c #272727",
"* c #060505",
"= c black",
"- c gray1",
"; c #111111",
": c #101010",
"> c gray5",
", c gray26",
"< c #2C2C2C",
"1 c #020001",
"2 c #C22017",
"3 c #8C0F03",
"4 c #020101",
"5 c #010102",
"6 c #010001",
"7 c #4C0E05",
"8 c #310802",
"9 c #010002",
"0 c #000001",
"q c #202020",
"w c gray3",
"e c gray15",
"r c gray32",
"t c gray31",
"y c #232323",
"u c #040404",
"i c #0C0B0B",
"p c #161616",
"a c #2F2F2F",
"s c #020202",
"d c #1E1F1E",
"f c #1E1E1E",
"g c #3A3A3A",
"h c #070606",
"j c #313131",
"k c #565656",
"l c #141313",
"z c gray7",
"x c #484948",
"c c gray8",
"v c #393939",
"b c #070707",
"n c gray2",
"m c #100F0F",
"M c gray18",
"N c gray27",
"B c #151515",
"V c #121111",
"C c gray11",
"Z c #1C1B1B",
"A c #4A4949",
"S c #282828",
"D c gray21",
"F c #353535",
/* pixels */
"  ......     ...........  .     ",
" .............................. ",
"................................",
"       . ............ ..........",
".......Xo....O+X................",
".......O@#$%%&*#............. ..",
".......X=-;::=>,......    ......",
"  .....X======+X................",
"....  <+1234235>................",
"......O=6789780>..... ..........",
"......X+=======+...........     ",
"......%q========wer......    ...",
"... ...ty=======uip.....   .....",
"........a=======s@ud..fg........",
"     ...q========u>hjkf=&t......",
"........f==========lzx.c=O......",
"........f==========h>v.O=c......",
"........f===========lb O=>......",
".......#-===========un.O=>......",
" .    .X==============.O=> .....",
" .    .O==============.==>.     ",
".......O==============O=>m....  ",
".......O================>M......",
"......NB@a=============uV,......",
"......O=@OC============ZA.......",
"......S================g........",
"..... DFFFFFFFFFFFFFFFF.........",
".............................   ",
"..................    .. .......",
" .    ..........................",
" .............................. ",
"   ..           ..............  "
};
